<?xml version="1.0" encoding="utf-8"?>
<!-- Generator: Adobe Illustrator 22.0.1, SVG Export Plug-In . SVG Version: 6.00 Build 0)  -->
<svg version="1.0" id="Layer_1" xmlns="http://www.w3.org/2000/svg" xmlns:xlink="http://www.w3.org/1999/xlink" x="0px" y="0px"
	 viewBox="0 0 279.7 103.7" enable-background="new 0 0 279.7 103.7" xml:space="preserve">
<polygon fill-rule="evenodd" clip-rule="evenodd" fill="#48605C" points="251.4,61.8 243.2,74.1 234.6,68.3 242.9,56.1 244.8,27.4 
	254.5,33.9 252.1,51.7 267.6,42.8 277.3,49.3 251.4,61.8 "/>
<path fill="#48605C" d="M220.3,17.8l-19.1-6.6l-13,37.4L198,52l4.7-13.6l7.4,2.6c4.6,1.6,3.8,5.7,2.8,9.5c-0.3,1.1-1.4,4.8-1,6.4
	l9.6,3.4c-0.8-1.8,0.9-7.4,1.4-9c0.9-3.7,1.3-8.5-2.3-10.8l0-0.1c4.5-0.2,7.7-3.3,9.1-7.4C232.4,25.3,226.9,20.1,220.3,17.8z
	 M219.6,30.8c-1,2.8-3.1,3.9-6,2.8l-8.2-2.8l2.9-8.4l7.7,2.7C218.8,26,220.6,28,219.6,30.8z"/>
<path fill="#48605C" d="M167.4,5.1L157,4l-18.9,37.9l10.5,1.1l3.2-6.8l13.7,1.5l1.7,7.3l10.7,1.1L167.4,5.1z M155,28.8l5.9-13.3
	l0.1,0l2.9,14.3L155,28.8z"/>
<polygon fill-rule="evenodd" clip-rule="evenodd" fill="#48605C" points="133.4,11.4 121.6,12.1 123.5,42.8 113.2,43.4 111.3,12.7 
	99.5,13.5 99,4.6 132.9,2.5 133.4,11.4 "/>
<path fill="#48605C" d="M92,25.3c-2.8-11.1-11.9-18.3-24-15.2C56,13.2,51.4,23.8,54.2,34.9c2.8,11.1,11.9,18.3,24,15.2
	C90.3,47.1,94.8,36.5,92,25.3z M76,41.5c-6.4,1.6-10.4-3.4-11.8-9.1c-1.4-5.7-0.4-12,6-13.7c6.4-1.6,10.4,3.4,11.8,9.1
	C83.5,33.6,82.4,39.9,76,41.5z"/>
<path fill="#48605C" d="M46.4,49.6c-2.1-3.1-5.5-6.6-9.7-5.4l-0.1-0.1c2.8-3.4,2.6-8,0.5-11.7c-3.9-6.9-11.5-6.3-17.5-2.9l-17.6,10
	L21.6,74l9-5.1l-7.1-12.6l6.8-3.9c4.2-2.4,6.8,0.9,9,4.2c0.7,0.9,2.7,4.2,4.1,4.9l8.9-5C50.3,56,47.3,51,46.4,49.6z M27,45.1
	l-7.5,4.3l-4.4-7.8l7.1-4c2.5-1.4,5.2-1.4,6.6,1.1C30.4,41.3,29.7,43.6,27,45.1z"/>
<path fill="#898C8E" d="M164.1,64.7c-4.8,0-13.7,6.3-16.9,8.1c0-3.4-0.9-7.7-1.7-9.6c-1.4-2.6-3.9-2-6.1-2c-4.8,0-4.7,14.1-4.7,14.1
	c-6.1-3.6-13.9-10.6-20.5-10.2c-19.7,2.8-37.1,11.1-55.1,18.3l-0.6,0.8h76.2c0,14,3.8,17.6,4.2,17.5h4.7c0.7,0,3.5-5.3,3.5-17.4
	l71.5-0.1l1.4-0.6C202.1,75.8,176.6,64.7,164.1,64.7z M122.6,81.4l7.5-1.9c0.6-1.1-0.2-1.6-1.1-1.7c-9.1-0.3-15.8,5-25.2,3.9
	c6.1-3.3,13.9-3.6,20.5-5.8c-0.3-1.7-2.1-1.8-3.3-1.7c-10,1.7-19.1,4.7-28.5,7.5h-6.1c8.9-3.9,19.4-6.7,29.4-8.9v-0.8
	c-6.4-1.1-11.9,1.4-18,2.5c-7.2,2.2-14.1,5.3-21.6,7.2c-1.7,0-3.6,0.3-5.3,0c14.4-5.8,29.9-13.9,45.1-12.3c7.4,1.2,15.6,7.5,21.4,12
	H122.6z M142,94.1c-0.6,2.6-0.9,4.8-2.3,4.8c-1.4-1.1-2.5-8.5-2.5-11.2v-3.4c2.2,0,2.9-0.2,3.1-1.6c0-3.8-3.2-6.1-3.2-6.1
	c0.3-1.7,0.2-5,0.5-7.1c0.1-3.4,1.6-6.1,2.4-6.1c1.3,0,2.1,3.8,2.2,5.8C142.8,77.1,143,88.5,142,94.1z M201.8,81.6
	c-5.3-2.1-11-4.5-16.8-6.4c-6.8-2.2-14.3-4.5-22.1-2.9c10.3,2,20.9,5.9,30.4,9.3l-8.1-0.2c-5.7-1.9-11.7-3.7-17.6-5.6
	c-4-1.3-9.7-3-12.7-0.3c5.5,0.8,10.1,1.8,15.8,3.9l5.2,2.2H169c-2.3-0.7-10.7-4-16.6-4.2c-0.8,0.2-3.2,0.7-1.6,2.4l6.2,1.8h-8.8
	c-0.6-1.7-1-3.9,2.1-6.1c6.9-4.4,10.2-8,24.4-5.5c11.6,2.2,23.5,6.9,34.3,11.7H201.8z"/>
</svg>
